<?xml version="1.0" standalone="no"?>
<!DOCTYPE svg PUBLIC "-//W3C//DTD SVG 20010904//EN"
 "http://www.w3.org/TR/2001/REC-SVG-20010904/DTD/svg10.dtd">
<svg version="1.0" xmlns="http://www.w3.org/2000/svg"
 width="500.000000pt" height="500.000000pt" viewBox="0 0 500.000000 500.000000"
 preserveAspectRatio="xMidYMid meet">

<g transform="translate(0.000000,500.000000) scale(0.100000,-0.100000)"
fill="#000000" stroke="none">
<path d="M2055 3303 c-16 -2 -59 -11 -94 -19 -58 -13 -65 -13 -76 2 -14 20
-35 11 -35 -15 0 -12 -28 -32 -92 -64 -274 -137 -421 -351 -354 -512 19 -44
52 -50 42 -7 -30 122 -8 203 80 300 73 81 280 219 299 200 2 -2 -36 -170 -86
-374 -232 -953 -276 -1166 -249 -1198 17 -21 38 -9 61 36 20 40 18 58 -7 58
-8 0 -14 4 -14 10 0 18 62 306 101 470 21 91 41 175 44 188 5 21 6 21 36 -12
37 -43 87 -60 148 -52 176 24 371 231 480 511 86 219 74 359 -36 435 -54 37
-159 55 -248 43z m202 -65 c111 -51 127 -184 49 -388 -44 -114 -68 -160 -128
-246 -165 -240 -393 -327 -460 -176 l-20 44 82 336 c45 185 86 354 91 374 9
34 14 39 62 53 128 37 249 38 324 3z"/>
<path d="M3445 3274 c-49 -25 -162 -143 -226 -237 -70 -102 -151 -266 -174
-352 -33 -128 -13 -237 54 -284 33 -24 121 -47 145 -38 35 14 15 33 -45 44
-95 18 -129 61 -129 163 0 108 64 265 179 437 94 140 218 258 251 238 19 -11
10 -100 -22 -242 l-32 -142 -105 -3 c-91 -3 -106 -5 -109 -20 -3 -16 7 -18
100 -18 l104 0 -73 -322 c-100 -441 -185 -863 -181 -900 4 -40 22 -46 44 -14
12 19 13 30 6 39 -7 9 1 69 29 207 40 202 206 950 215 974 4 9 29 15 77 18 40
3 74 4 75 2 2 -1 -12 -71 -32 -156 -97 -421 -202 -955 -207 -1051 -4 -71 29
-90 52 -30 6 17 6 30 -1 38 -13 15 8 143 76 479 42 208 134 625 152 691 l8 30
374 2 c257 1 376 5 378 12 9 26 -61 31 -394 31 -269 0 -344 3 -344 13 0 6 11
55 25 107 30 115 31 133 8 128 -14 -2 -25 -32 -49 -123 l-30 -120 -40 -7 c-50
-9 -114 -10 -114 -2 0 4 13 63 29 133 41 176 44 238 11 271 -24 24 -45 25 -85
4z"/>
<path d="M1071 3225 c-66 -60 -77 -153 -23 -195 32 -25 57 -25 82 0 41 41 7
118 -46 107 -21 -4 -24 -1 -18 17 3 11 20 36 37 54 22 23 28 35 20 43 -8 8
-22 1 -52 -26z"/>
<path d="M1252 3225 c-69 -61 -80 -151 -25 -195 32 -25 58 -25 83 0 41 41 7
119 -47 105 -22 -5 -24 -3 -18 17 4 13 21 38 38 56 22 23 28 35 20 43 -8 8
-22 1 -51 -26z"/>
<path d="M3934 3249 c-3 -6 5 -21 19 -33 44 -37 62 -88 28 -79 -23 6 -71 -37
-71 -62 0 -22 45 -65 68 -65 11 0 32 12 47 27 24 25 27 34 23 79 -5 57 -31
100 -76 127 -22 12 -33 14 -38 6z"/>
<path d="M4114 3249 c-3 -6 5 -21 19 -33 43 -36 62 -88 29 -79 -25 6 -72 -34
-72 -61 0 -23 37 -66 58 -66 27 0 62 25 73 51 15 39 6 101 -21 139 -26 37 -76
65 -86 49z"/>
<path d="M2646 2943 c-6 -14 -5 -15 5 -6 7 7 10 15 7 18 -3 3 -9 -2 -12 -12z"/>
<path d="M2379 2621 c-54 -42 -129 -233 -129 -328 0 -52 25 -100 61 -118 51
-27 95 -8 184 78 41 40 75 71 75 70 0 -1 -7 -34 -15 -74 -11 -50 -12 -76 -5
-83 15 -15 32 8 74 104 43 98 86 165 106 165 8 0 25 -28 40 -65 35 -90 47
-109 74 -116 48 -12 98 31 160 138 26 44 28 68 6 68 -5 0 -26 -26 -46 -57 -43
-69 -83 -113 -101 -113 -7 0 -22 20 -33 45 -11 25 -29 65 -40 90 -11 25 -27
48 -35 51 -29 12 -65 -7 -91 -46 -15 -22 -28 -39 -30 -37 -2 1 3 22 11 45 8
22 18 60 21 83 6 36 5 41 -11 38 -12 -3 -25 -25 -39 -70 -23 -70 -64 -127
-159 -217 -69 -65 -101 -78 -133 -57 -30 19 -39 72 -26 141 10 46 19 62 70
111 65 64 95 113 90 146 -4 30 -46 34 -79 8z m7 -76 c-26 -34 -45 -48 -30 -22
21 36 47 68 51 63 3 -3 -6 -21 -21 -41z"/>
<path d="M2275 2100 c-10 -11 -16 -22 -14 -25 7 -7 52 19 51 30 -1 18 -18 16
-37 -5z"/>
<path d="M2224 1977 c-38 -44 -53 -60 -88 -92 -23 -22 -26 -29 -15 -37 11 -8
10 -9 -4 -4 -10 3 -27 6 -37 6 -18 0 -17 3 6 51 14 28 23 53 20 56 -2 3 -12
-11 -20 -31 -14 -35 -32 -53 -19 -20 3 9 -6 5 -22 -10 -30 -28 -45 -33 -45
-15 0 8 -6 7 -17 -2 -15 -12 -16 -12 -8 1 8 13 6 13 -8 2 -12 -10 -31 -12 -67
-7 -64 9 -70 -14 -10 -38 29 -11 44 -24 51 -46 l11 -30 23 27 24 27 59 -60
c86 -88 103 -99 45 -28 -29 35 -55 69 -60 77 -10 17 -69 26 -66 9 1 -6 -5 -17
-15 -25 -15 -11 -15 -11 -5 2 16 21 5 35 -42 51 -66 22 -19 20 150 -6 149 -23
154 -24 70 -20 -57 3 -82 1 -69 -4 11 -5 38 -29 59 -53 28 -31 34 -35 21 -13
-10 17 -28 38 -40 47 -11 10 -16 18 -10 18 24 0 80 -25 104 -47 14 -13 33 -26
43 -29 9 -3 17 -12 17 -19 0 -10 6 -12 18 -8 16 7 16 6 -1 -11 -9 -10 -15 -22
-11 -27 10 -17 84 -60 93 -54 5 2 28 -2 51 -10 53 -19 75 -19 35 0 l-30 14 30
-5 c17 -3 39 -8 50 -11 12 -3 -4 17 -38 47 -31 28 -62 62 -68 73 -8 16 -1 12
27 -13 21 -19 41 -39 45 -43 3 -5 9 -8 13 -8 3 1 21 -5 40 -13 51 -21 100 -30
92 -17 -4 6 -11 9 -16 6 -5 -3 -19 5 -31 17 -12 13 -19 16 -15 8 4 -8 -2 -4
-14 10 -12 14 -18 18 -14 10 7 -13 5 -13 -8 -2 -19 15 -11 53 12 60 7 3 10 0
6 -7 -4 -6 -2 -11 3 -11 15 0 14 27 -1 34 -9 3 -8 8 5 16 35 22 16 30 -63 25
-44 -2 -80 -1 -80 4 0 8 -56 28 -93 33 -13 2 0 15 42 42 67 42 76 59 14 28
-21 -11 -49 -23 -63 -26 -23 -7 -22 -5 9 23 19 17 32 33 29 36 -2 3 -26 -2
-52 -11 -26 -9 -49 -14 -52 -11 -3 3 4 24 16 47 27 53 21 60 -16 17z m234
-237 c12 -11 22 -19 22 -16 0 2 3 12 6 20 5 12 2 15 -12 10 -15 -5 -16 -4 -5
4 8 6 20 8 27 5 10 -3 9 -10 -1 -29 -7 -14 -16 -25 -19 -25 -4 0 -24 17 -44
37 -38 38 -15 33 26 -6z m-143 -90 c3 -6 -1 -7 -9 -4 -18 7 -21 14 -7 14 6 0
13 -4 16 -10z m45 -22 c0 -6 -6 -5 -15 2 -8 7 -15 14 -15 16 0 2 7 1 15 -2 8
-4 15 -11 15 -16z"/>
<path d="M2366 1831 c5 -4 23 -11 39 -15 28 -6 29 -5 11 9 -21 16 -67 22 -50
6z"/>
<path d="M2605 1790 l-30 -8 30 0 c17 0 44 4 60 8 l30 8 -30 0 c-16 0 -43 -4
-60 -8z"/>
<path d="M2553 1712 c1 -12 6 -18 15 -15 7 3 10 9 5 12 -4 3 -11 10 -15 15 -4
4 -6 -1 -5 -12z"/>
<path d="M2435 1540 c-4 -6 -4 -10 -1 -10 2 0 11 -3 20 -6 9 -3 16 -2 16 4 0
14 -28 23 -35 12z"/>
</g>
</svg>
